<?xml version="1.0" encoding="UTF-8"?>
<svg xmlns="http://www.w3.org/2000/svg" width="1280" height="280" viewBox="0 0 1280 280" fill="none">
  <defs>
    <linearGradient id="bg" x1="0" y1="0" x2="0" y2="1" gradientUnits="objectBoundingBox">
      <stop stop-color="#2f2440"/>
      <stop offset="1" stop-color="#17111f"/>
    </linearGradient>
  </defs>
  <rect width="1280" height="280" rx="12" fill="url(#bg)"/>
  <rect x="1" y="1" width="1278" height="278" rx="11" stroke="#6d5f95" stroke-width="1" fill="none" opacity="0.45"/>
  <line x1="131.42857142857144" y1="88" x2="224.28571428571428" y2="88" stroke="#6d5f95" stroke-width="2"/>
<polygon points="224.28571428571428,83 234.28571428571428,88 224.28571428571428,93" fill="#6d5f95"/>
<line x1="314.2857142857143" y1="88" x2="415.14285714285717" y2="88" stroke="#6d5f95" stroke-width="2"/>
<polygon points="415.14285714285717,83 425.14285714285717,88 415.14285714285717,93" fill="#6d5f95"/>
<line x1="489.14285714285717" y1="80" x2="590" y2="80" stroke="#6d5f95" stroke-width="2"/>
<polygon points="590,75 600,80 590,85" fill="#6d5f95"/>
<line x1="680" y1="88" x2="772.8571428571429" y2="88" stroke="#6d5f95" stroke-width="2"/>
<polygon points="772.8571428571429,83 782.8571428571429,88 772.8571428571429,93" fill="#6d5f95"/>
<line x1="862.8571428571429" y1="88" x2="955.7142857142858" y2="88" stroke="#6d5f95" stroke-width="2"/>
<polygon points="955.7142857142858,83 965.7142857142858,88 955.7142857142858,93" fill="#6d5f95"/>
<line x1="1045.7142857142858" y1="88" x2="1138.5714285714284" y2="88" stroke="#6d5f95" stroke-width="2"/>
<polygon points="1138.5714285714284,83 1148.5714285714284,88 1138.5714285714284,93" fill="#6d5f95"/>
<g transform="translate(59.42857142857143 56) scale(2.6666666666666665)"><g fill="#E7352B"><title>Espressif</title><path d="M12.926 19.324a7.6 7.6 0 00-2.983-6.754 7.44 7.44 0 00-3.828-1.554.697.697 0 01-.606-.731.674.674 0 01.743-.617 8.97 8.97 0 018 9.805 7.828 7.828 0 01-.298 1.542l1.989.56a11.039 11.039 0 001.714-.651 12.159 12.159 0 00.217-2.343A12.57 12.57 0 007.212 6.171a5.53 5.53 0 00-2 0 4.354 4.354 0 00-2.16 1.337 4.274 4.274 0 001.909 6.856 9.896 9.896 0 001.074.195 4.011 4.011 0 013.337 3.954 3.965 3.965 0 01-.64 2.16l1.371.88a10.182 10.182 0 002.057.342 7.52 7.52 0 00.754-2.628m.16 4.73A13.073 13.073 0 01.001 10.983 12.982 12.982 0 013.83 1.737l.743.697a12.067 12.067 0 000 17.141 12.067 12.067 0 0017.141 0l.697.697a12.97 12.97 0 01-9.336 3.726M24 10.993A10.993 10.993 0 0012.949 0c-.389 0-.766 0-1.143.057l-.252.732a18.912 18.912 0 0111.588 11.576l.731-.263c0-.366.069-.732.069-1.143m-1.269 5.165A17.53 17.53 0 007.818 1.27a11.119 11.119 0 00-2.457 1.77v1.635A13.919 13.919 0 0119.268 18.57h1.634a11.713 11.713 0 001.771-2.446M7.92 17.884a1.691 1.691 0 11-1.69-1.691 1.691 1.691 0 011.69 1.691"/></g></g>
<g transform="translate(242.28571428571428 56) scale(0.8)">
    <title>Icon-Architecture/64/Arch_AWS-IoT-Core_64</title>
    <g id="Icon-Architecture/64/Arch_AWS-IoT-Core_64" stroke="none" stroke-width="1" fill="none" fill-rule="evenodd">
        <g id="Icon-Architecture-BG/64/Internet-of-Things" fill="#7AA116">
            <rect id="Rectangle" x="0" y="0" width="80" height="80"></rect>
        </g>
        <path d="M57.4230047,47.906119 C57.4230047,46.7966471 56.5260469,45.8943839 55.4230988,45.8943839 C54.3201507,45.8943839 53.4231929,46.7966471 53.4231929,47.906119 C53.4231929,49.0155909 54.3201507,49.9178541 55.4230988,49.9178541 C56.5260469,49.9178541 57.4230047,49.0155909 57.4230047,47.906119 M54.0631628,51.6740989 C52.8372204,51.2244761 51.8972646,50.1954736 51.5662802,48.9119866 L49.423381,48.9119866 L49.423381,56.9830679 C51.3622898,55.8182733 53.0952083,53.8507963 54.0631628,51.6740989 M47.423475,57.8772842 L47.423475,47.906119 C47.423475,47.3508801 47.870454,46.9002515 48.423428,46.9002515 L51.5662802,46.9002515 C51.8982646,45.6137469 52.8412202,44.5837385 54.0691625,44.1361274 C52.9622145,41.595306 50.6913213,39.3099749 48.1724398,38.2015088 C47.7274607,39.4387259 46.702509,40.387259 45.4235691,40.7222129 L45.4235691,58.2766136 C46.1095368,58.2102263 46.7805053,58.0724225 47.423475,57.8772842 M43.4236632,58.2756077 L43.4236632,40.7222129 C42.1467232,40.3882649 41.1227714,39.4407376 40.6767924,38.2055323 C38.1529111,39.3280805 35.8830178,41.6113998 34.7780698,44.1361274 C36.007012,44.5847443 36.9489677,45.6137469 37.2809521,46.9002515 L40.4238043,46.9002515 C40.9767782,46.9002515 41.4237572,47.3508801 41.4237572,47.906119 L41.4237572,57.8541492 C42.0807263,58.0643755 42.7436951,58.2082146 43.4236632,58.2756077 M39.4238513,56.9418273 L39.4238513,48.9119866 L37.2809521,48.9119866 C36.9499676,50.1954736 36.0110118,51.2234702 34.7860694,51.6740989 C35.7460243,53.8176027 37.4769429,55.7639564 39.4238513,56.9418273 M33.4241335,49.9178541 C34.5270816,49.9178541 35.4240394,49.0155909 35.4240394,47.906119 C35.4240394,46.7966471 34.5270816,45.8943839 33.4241335,45.8943839 C32.3211853,45.8943839 31.4242275,46.7966471 31.4242275,47.906119 C31.4242275,49.0155909 32.3211853,49.9178541 33.4241335,49.9178541 M42.4237102,36.8415759 C42.4237102,37.9510478 43.320668,38.853311 44.4236161,38.853311 C45.5265643,38.853311 46.4235221,37.9510478 46.4235221,36.8415759 C46.4235221,35.7321039 45.5265643,34.8298407 44.4236161,34.8298407 C43.320668,34.8298407 42.4237102,35.7321039 42.4237102,36.8415759 M59.4229107,47.906119 C59.4229107,49.8796312 58.0009776,51.5181894 56.1340654,51.8571668 C54.9171226,55.0578374 52.3372439,57.8994132 49.423381,59.2472758 L49.423381,64 L47.423475,64 L47.423475,59.9584241 C46.7725057,60.1223806 46.1025372,60.2370495 45.4235691,60.2923722 L45.4235691,64 L43.4236632,64 L43.4236632,60.2923722 C42.746695,60.2360436 42.0797264,60.1163453 41.4237572,59.9453479 L41.4237572,64 L39.4238513,64 L39.4238513,59.2130763 C36.4969889,57.8390612 33.9201101,55.0176027 32.7141669,51.8571668 C30.8472547,51.5181894 29.4243216,49.8796312 29.4243216,47.906119 C29.4243216,45.9336127 30.8442548,44.2960604 32.7091671,43.9550712 C33.9851071,40.4958927 37.0409634,37.4209556 40.4958009,36.1243923 C40.833785,34.2484493 42.4617084,32.8181056 44.4236161,32.8181056 C46.3845239,32.8181056 48.0114474,34.2464376 48.3514314,36.1203688 C51.8002692,37.3998324 54.8591253,40.4747695 56.1380652,43.9550712 C58.0029775,44.2970662 59.4229107,45.9346186 59.4229107,47.906119 M64.9986484,38.4740989 C65.0436463,41.2110645 63.9626972,43.8665549 62.1077844,45.6217938 L60.7378488,44.1552389 C62.1897805,42.7832355 63.0337409,40.6880134 62.9977425,38.5515507 C62.9987425,34.4284996 59.9888841,31.0950545 55.9980718,30.7208718 C55.461097,30.6695725 55.0601159,30.1998324 55.0931143,29.6576697 L55.1011139,29.5389774 C55.1061137,29.4705784 55.1111135,29.4021794 55.1111135,29.3307628 C55.1111135,26.6893546 52.9882133,24.5408215 50.3783361,24.5408215 C49.1573935,24.5408215 47.998448,25.0125733 47.1134896,25.8685666 C46.8705011,26.1029338 46.5235174,26.1964795 46.1985327,26.124057 C45.8705481,26.0496228 45.6025607,25.8132439 45.4845662,25.4953898 C43.8196445,21.0192791 39.5348461,18.0117351 34.8220677,18.0117351 C28.5373633,18.0117351 23.4246038,23.184912 23.4246038,29.5450126 C23.4246038,29.9795474 23.1466168,30.3708298 22.7356362,30.506622 C19.3047975,31.6341995 16.9999059,34.8449288 16.9999059,38.4952221 C16.9999059,43.129254 20.7257307,46.9002515 25.3055153,46.9002515 L25.4245097,46.9002515 L25.4245097,48.9119866 L25.3055153,48.9119866 C19.6227826,48.9119866 15,44.2387259 15,38.4952221 C15,34.2142498 17.5618795,30.4211232 21.4436969,28.8409053 C21.8096797,21.6952221 27.6704041,16 34.8220677,16 C39.9178281,16 44.5876084,18.9864208 46.8255032,23.5550712 C47.8844534,22.8871752 49.1083958,22.5290863 50.3783361,22.5290863 C53.9291691,22.5290863 56.8470318,25.3203688 57.0950202,28.8459346 C61.6598055,29.7069573 64.9986484,33.696228 64.9986484,38.4740989" id="AWS-IoT-Core_Icon_64_Squid" fill="#FFFFFF"></path>
    </g>
</g>
<g transform="translate(433.14285714285717 56) scale(1)">
    <title>Icon-Resource/IoT/Res_AWS-IoT-Rule_48</title>
    <g id="Icon-Resource/IoT/Res_AWS-IoT-Rule_48" stroke="none" stroke-width="1" fill="none" fill-rule="evenodd">
        <path d="M33.0811,9.1075 C31.6731,9.1075 30.5271,7.9615 30.5271,6.5535 C30.5271,5.1455 31.6731,4.0005 33.0811,4.0005 C34.4891,4.0005 35.6351,5.1455 35.6351,6.5535 C35.6351,7.9615 34.4891,9.1075 33.0811,9.1075 L33.0811,9.1075 Z M13.0001,8.1835 L17.1191,8.1835 L17.1191,4.0635 L13.0001,4.0635 L13.0001,8.1835 Z M33.0811,2.0005 C30.5701,2.0005 28.5271,4.0435 28.5271,6.5535 C28.5271,7.3635 28.7581,8.1135 29.1301,8.7735 L24.2491,12.0825 L19.1191,8.6055 L19.1191,3.0635 C19.1191,2.5105 18.6721,2.0635 18.1191,2.0635 L12.0001,2.0635 C11.4471,2.0635 11.0001,2.5105 11.0001,3.0635 L11.0001,9.1835 C11.0001,9.7365 11.4471,10.1835 12.0001,10.1835 L17.8841,10.1835 L23.3251,13.8715 L23.3251,16.2745 L25.3251,16.2745 L25.3251,13.7685 L30.4761,10.2785 C31.2161,10.7965 32.1111,11.1075 33.0811,11.1075 C35.5921,11.1075 37.6351,9.0645 37.6351,6.5535 C37.6351,4.0435 35.5921,2.0005 33.0811,2.0005 L33.0811,2.0005 Z M24.3411,44.2595 C18.3111,44.2595 14.9351,42.7435 14.8201,42.1005 L14.8211,26.3645 C17.0381,27.5125 20.7721,28.0565 24.3411,28.0565 C27.9091,28.0565 31.6441,27.5125 33.8611,26.3645 L33.8611,42.0965 C33.7451,42.7435 30.3661,44.2595 24.3411,44.2595 L24.3411,44.2595 Z M35.8441,23.8815 C35.8351,23.7365 35.8231,23.5875 35.7841,23.4605 C35.4921,22.4295 34.4361,21.6155 32.5561,20.9695 L31.9071,22.8625 C33.2341,23.3175 33.7151,23.7555 33.8321,23.9475 C33.5301,24.6285 30.2001,26.0565 24.3411,26.0565 C18.4741,26.0565 15.1471,24.6285 14.8501,23.9495 C14.9631,23.7595 15.4411,23.3195 16.7741,22.8625 L16.1261,20.9695 C14.2451,21.6155 13.1891,22.4295 12.8971,23.4585 C12.8581,23.5945 12.8471,23.7405 12.8381,23.8815 L12.8201,23.8815 C12.8201,23.9045 12.8281,23.9235 12.8291,23.9455 C12.8281,23.9645 12.8201,23.9855 12.8201,24.0045 L12.8201,42.1005 C12.8201,44.9585 18.7921,46.2595 24.3411,46.2595 C29.8901,46.2595 35.8611,44.9585 35.8611,42.1005 L35.8611,24.0045 C35.8611,23.9845 35.8531,23.9655 35.8521,23.9455 C35.8531,23.9235 35.8611,23.9045 35.8611,23.8815 L35.8441,23.8815 Z M24.3411,22.1335 L20.9551,18.9635 L27.7271,18.9635 L24.3411,22.1335 Z M31.3971,24.2145 L31.3971,17.9635 C31.3971,17.4115 30.9501,16.9635 30.3971,16.9635 L18.2531,16.9635 C17.7001,16.9635 17.2531,17.4115 17.2531,17.9635 L17.2531,24.2145 L19.2531,24.2145 L19.2531,20.1115 L23.6571,24.2335 C23.8501,24.4145 24.0951,24.5035 24.3411,24.5035 C24.5861,24.5035 24.8321,24.4145 25.0241,24.2345 L29.3971,20.1405 L29.3971,24.2145 L31.3971,24.2145 Z" id="Amazon-IOT-RESOURCES-IoT-IoT-Rule_Resource-Icon_light-bg" fill="#7AA116"></path>
    </g>
</g>
<g transform="translate(608 56) scale(0.8)">
    <title>Icon-Architecture/64/Arch_AWS-Lambda_64</title>
    <g id="Icon-Architecture/64/Arch_AWS-Lambda_64" stroke="none" stroke-width="1" fill="none" fill-rule="evenodd">
        <g id="Icon-Architecture-BG/64/Compute" fill="#ED7100">
            <rect id="Rectangle" x="0" y="0" width="80" height="80"></rect>
        </g>
        <path d="M28.0075352,66 L15.5907274,66 L29.3235885,37.296 L35.5460249,50.106 L28.0075352,66 Z M30.2196674,34.553 C30.0512768,34.208 29.7004629,33.989 29.3175745,33.989 L29.3145676,33.989 C28.9286723,33.99 28.5778583,34.211 28.4124746,34.558 L13.097944,66.569 C12.9495999,66.879 12.9706487,67.243 13.1550766,67.534 C13.3374998,67.824 13.6582439,68 14.0020416,68 L28.6420072,68 C29.0299071,68 29.3817234,67.777 29.5481094,67.428 L37.563706,50.528 C37.693006,50.254 37.6920037,49.937 37.5586944,49.665 L30.2196674,34.553 Z M64.9953491,66 L52.6587274,66 L32.866809,24.57 C32.7014253,24.222 32.3486067,24 31.9617091,24 L23.8899822,24 L23.8990031,14 L39.7197081,14 L59.4204149,55.429 C59.5857986,55.777 59.9386172,56 60.3255148,56 L64.9953491,56 L64.9953491,66 Z M65.9976745,54 L60.9599868,54 L41.25928,12.571 C41.0938963,12.223 40.7410777,12 40.3531778,12 L22.89768,12 C22.3453987,12 21.8963569,12.447 21.8953545,12.999 L21.884329,24.999 C21.884329,25.265 21.9885708,25.519 22.1780103,25.707 C22.3654452,25.895 22.6200358,26 22.8866544,26 L31.3292417,26 L51.1221625,67.43 C51.2885485,67.778 51.6393624,68 52.02626,68 L65.9976745,68 C66.5519605,68 67,67.552 67,67 L67,55 C67,54.448 66.5519605,54 65.9976745,54 L65.9976745,54 Z" id="AWS-Lambda_Icon_64_Squid" fill="#FFFFFF"></path>
    </g>
</g>
<g transform="translate(790.8571428571429 56) scale(0.8)">
    <title>Icon-Architecture/64/Arch_Amazon-DynamoDB_64</title>
    <g id="Icon-Architecture/64/Arch_Amazon-DynamoDB_64" stroke="none" stroke-width="1" fill="none" fill-rule="evenodd">
        <g id="Icon-Architecture-BG/64/Database" fill="#C925D1">
            <rect id="Rectangle" x="0" y="0" width="80" height="80"></rect>
        </g>
        <path d="M52.0859525,54.8502506 C48.7479569,57.5490338 41.7449661,58.9752927 35.0439749,58.9752927 C28.3419838,58.9752927 21.336993,57.548042 17.9999974,54.8492588 L17.9999974,60.284515 L18.0009974,60.284515 C18.0009974,62.9952002 24.9999974,66.0163299 35.0439749,66.0163299 C45.0799617,66.0163299 52.0749525,62.9991676 52.0859525,60.290466 L52.0859525,54.8502506 Z M52.0869525,44.522272 L54.0869499,44.5113618 L54.0869499,44.522272 C54.0869499,45.7303271 53.4819507,46.8580436 52.3039522,47.8905439 C53.7319503,49.147199 54.0869499,50.3800499 54.0869499,51.257824 C54.0869499,51.263775 54.0859499,51.2687342 54.0859499,51.2746852 L54.0859499,60.284515 L54.0869499,60.284515 C54.0869499,65.2952658 44.2749628,68 35.0439749,68 C25.8349871,68 16.0499999,65.3071678 16.003,60.3192292 C16.003,60.31427 16,60.3093109 16,60.3043517 L16,51.2548485 C16,51.2528648 16.002,51.2498893 16.002,51.2469138 C16.005,50.3691398 16.3609995,49.1412479 17.7869976,47.8875684 C16.3699995,46.6358725 16.01,45.4149236 16.001,44.5440924 L16.002,44.5440924 C16.002,44.540125 16,44.5371495 16,44.5331822 L16,35.483679 C16,35.4807035 16.002,35.477728 16.002,35.4747525 C16.005,34.5969784 16.3619995,33.3690866 17.7879976,32.1173908 C16.3699995,30.8647031 16.01,29.6427623 16.001,28.7729229 L16.002,28.7729229 C16.002,28.7689556 16,28.7649882 16,28.7610209 L16,19.7125095 C16,19.709534 16.002,19.7065585 16.002,19.703583 C16.019,14.6997751 25.8199871,12 35.0439749,12 C40.2549681,12 45.2609615,12.8281823 48.7779569,14.2722941 L48.0129579,16.1052054 C44.7299622,14.7573015 40.0029684,13.9836701 35.0439749,13.9836701 C24.9999882,13.9836701 18.0009974,17.0047998 18.0009974,19.7174687 C18.0009974,22.4291458 24.9999882,25.4502754 35.0439749,25.4502754 C35.3149746,25.4532509 35.5799742,25.4502754 35.8479739,25.4403571 L35.9319738,27.4220435 C35.6359742,27.4339456 35.3399745,27.4339456 35.0439749,27.4339456 C28.3419838,27.4339456 21.336993,26.0066949 18,23.3079117 L18,28.7401923 L18.0009974,28.7401923 L18.0009974,28.7630046 C18.0109974,29.8034395 19.0779959,30.7119605 19.9719948,31.2892085 C22.6619912,33.0040913 27.4819849,34.1754485 32.8569778,34.4184481 L32.7659779,36.4001346 C27.3209851,36.1531677 22.5529914,35.0234675 19.4839954,33.2917235 C18.7279964,33.8570695 18.0009974,34.6217743 18.0009974,35.4886382 C18.0009974,38.2003153 24.9999882,41.2214449 35.0439749,41.2214449 C36.0289736,41.2214449 37.0069723,41.1887143 37.9519711,41.1232532 L38.0909709,43.1019642 C37.1009722,43.1704008 36.0749736,43.205115 35.0439749,43.205115 C28.3419838,43.205115 21.336993,41.7778644 18,39.0790811 L18,44.5113618 L18.0009974,44.5113618 C18.0109974,45.574609 19.0779959,46.4821381 19.9719948,47.060378 C23.0479907,49.0232196 28.8239831,50.2451604 35.0439749,50.2451604 L35.4839744,50.2451604 L35.4839744,52.2288305 L35.0439749,52.2288305 C28.7249832,52.2288305 22.9819908,51.0554896 19.4699954,49.0728113 C18.7179964,49.6371655 18.0009974,50.397903 18.0009974,51.257824 C18.0009974,53.9695011 24.9999882,56.9916225 35.0439749,56.9916225 C45.0799617,56.9916225 52.0749525,53.9744602 52.0859525,51.2647668 L52.0859525,51.2548485 L52.0859525,51.2538566 C52.0839525,50.391952 51.3639534,49.6312145 50.6099544,49.0668603 C50.1219551,49.3435823 49.5989558,49.6103859 49.0039566,49.8553692 L48.2379576,48.022458 C48.9639566,47.7239156 49.5939558,47.4015692 50.1109551,47.0623616 C51.0129539,46.4742034 52.0869525,45.5547723 52.0869525,44.522272 L52.0869525,44.522272 Z M60.6529412,30.0166841 L55.0489486,30.0166841 C54.717949,30.0166841 54.4069494,29.8540231 54.2219497,29.5822603 C54.0349499,29.3104975 53.99695,28.9643471 54.1189498,28.6598537 L57.5279453,20.1380068 L44.6189702,20.1380068 L38.6189702,32.0400276 L45.0009618,32.0400276 C45.3199614,32.0400276 45.619961,32.1917784 45.8089608,32.44668 C45.9959605,32.7025735 46.0509604,33.0308709 45.9539606,33.3333806 L40.2579681,51.089212 L60.6529412,30.0166841 Z M63.7219372,29.7121907 L38.7229701,55.539576 C38.5279703,55.7399267 38.2659707,55.8440694 38.000971,55.8440694 C37.8249713,55.8440694 37.6479715,55.7994368 37.4899717,55.7052124 C37.0899722,55.4691557 36.9069725,54.992083 37.0479723,54.5517083 L43.6339636,34.0236978 L37.0009724,34.0236978 C36.6539728,34.0236978 36.3329732,33.8461593 36.1499735,33.5535679 C35.9679737,33.2609766 35.9509737,32.8959813 36.1069735,32.5885124 L43.1069643,18.7028214 C43.2759641,18.3665893 43.6219636,18.1543366 44.0009631,18.1543366 L59.0009434,18.1543366 C59.331943,18.1543366 59.6429425,18.3179894 59.8279423,18.5887604 C60.0149421,18.861515 60.052942,19.2066736 59.9309422,19.5121588 L56.5219467,28.0330139 L62.9999381,28.0330139 C63.3999376,28.0330139 63.7629371,28.2710544 63.9199369,28.6360497 C64.0769367,29.0020368 63.9989368,29.4255504 63.7219372,29.7121907 L63.7219372,29.7121907 Z M19.4549955,60.6743062 C20.8719936,61.4727334 22.6559912,62.1442057 24.7569885,62.6678947 L25.2449878,60.7437346 C23.3459903,60.2706293 21.6859925,59.6497405 20.4429942,58.949505 L19.4549955,60.6743062 Z M24.7569885,46.7985335 L25.2449878,44.8753653 C23.3459903,44.4012681 21.6859925,43.7803794 20.4429942,43.0801438 L19.4549955,44.804945 C20.8719936,45.6033722 22.6549912,46.2748446 24.7569885,46.7985335 L24.7569885,46.7985335 Z M19.4549955,28.9355839 L20.4429942,27.2107827 C21.6839925,27.9110182 23.3449903,28.5309151 25.2449878,29.0060041 L24.7569885,30.9291723 C22.6529912,30.4044916 20.8699936,29.7330193 19.4549955,28.9355839 L19.4549955,28.9355839 Z" id="Amazon-DynamoDB_Icon_64_Squid" fill="#FFFFFF"></path>
    </g>
</g>
<g transform="translate(973.7142857142858 56) scale(0.8)">
<g id="Icon-Architecture/64/Arch_Amazon-API-Gateway_64">
<g id="Icon-Architecture-BG/64/Networking-Content-Delivery">
<rect id="Rectangle" width="80" height="80" fill="#8C4FFF"/>
</g>
<g id="Icon-Service/64/Amazon-API-Gateway_64">
<path id="Amazon-API-Gateway_Icon_64_Squid" fill-rule="evenodd" clip-rule="evenodd" d="M34.065 55.6324H37V53.6153H34.065V55.6324ZM39 55.6324H42V53.6153H39V55.6324ZM27 14.6295L14 21.0821V61.1934L27 65.5896V14.6295ZM29 27.3934V53.6153H32V55.6324H29V66.9915C29 67.3162 28.845 67.6208 28.584 67.8104C28.412 67.9355 28.207 68 28 68C27.894 68 27.786 67.9829 27.682 67.9476L12.682 62.8756C12.274 62.7375 12 62.3522 12 61.9196V20.4537C12 20.0705 12.217 19.7185 12.559 19.5491L27.559 12.1041C27.868 11.9498 28.235 11.9679 28.528 12.1525C28.821 12.3361 29 12.6598 29 13.0087V25.3764H32V27.3934H29ZM44 55.6324H47V53.6153H44V55.6324ZM44.065 27.3934H47V25.3764H44.065V27.3934ZM39.065 27.3934H42V25.3764H39.065V27.3934ZM34.065 27.3934H37V25.3764H34.065V27.3934ZM66 21.0821L53 14.6295V65.5896L66 61.1934V21.0821ZM68 61.9196C68 62.3522 67.726 62.7375 67.318 62.8756L52.318 67.9476C52.214 67.9829 52.106 68 52 68C51.793 68 51.588 67.9355 51.416 67.8104C51.155 67.6208 51 67.3162 51 66.9915V55.6324H49.065V53.6153H51V27.3934H49.065V25.3764H51V13.0087C51 12.6598 51.179 12.3361 51.472 12.1525C51.765 11.9679 52.131 11.9498 52.441 12.1041L67.441 19.5491C67.783 19.7185 68 20.0705 68 20.4537V61.9196ZM42.934 33.8067L41.066 33.0826L36.066 46.1935L37.934 46.9176L42.934 33.8067ZM49.707 40.2089C50.098 39.8145 50.098 39.1761 49.707 38.7828L45.707 34.7487L44.293 36.1747L47.586 39.4958L44.293 42.8169L45.707 44.243L49.707 40.2089ZM34.293 44.243L30.293 40.2089C29.902 39.8145 29.902 39.1761 30.293 38.7828L34.293 34.7487L35.707 36.1747L32.414 39.4958L35.707 42.8169L34.293 44.243Z" fill="white"/>
</g>
</g>
</g>
<g transform="translate(1156.5714285714284 56) scale(0.8)">
    <title>Icon-Architecture/64/Arch_AWS-Amplify_64</title>
    <g id="Icon-Architecture/64/Arch_AWS-Amplify_64" stroke="none" stroke-width="1" fill="none" fill-rule="evenodd">
        <g id="Icon-Architecture-BG/64/Mobile" fill="#DD344C">
            <rect id="Rectangle" x="0" y="0" width="80" height="80"></rect>
        </g>
        <path d="M59.6107389,59.179 L39.5067389,20 L45.2577389,20 L65.3627389,59.179 L59.6107389,59.179 Z M67.8887389,59.722 L46.7587389,18.544 C46.5887389,18.21 46.2447389,18 45.8697389,18 L37.8697389,18 C37.5207389,18 37.1977389,18.181 37.0157389,18.479 C36.8347389,18.776 36.8207389,19.147 36.9797389,19.457 L58.1097389,60.636 C58.2807389,60.969 58.6247389,61.179 58.9997389,61.179 L66.9997389,61.179 C67.3477389,61.179 67.6717389,60.998 67.8527389,60.7 C68.0347389,60.403 68.0487389,60.033 67.8887389,59.722 L67.8887389,59.722 Z M47.5987389,59.179 L32.2147389,30.332 L35.3657389,25.121 L53.3407389,59.179 L47.5987389,59.179 Z M36.3097389,22.624 C36.1407389,22.305 35.8147389,22.101 35.4547389,22.091 C35.1087389,22.07 34.7567389,22.265 34.5697389,22.573 L30.2097389,29.784 C30.0267389,30.086 30.0167389,30.461 30.1817389,30.772 L46.1167389,60.65 C46.2907389,60.975 46.6307389,61.179 46.9997389,61.179 L54.9997389,61.179 C55.3497389,61.179 55.6747389,60.995 55.8557389,60.695 C56.0367389,60.395 56.0477389,60.022 55.8837389,59.712 L36.3097389,22.624 Z M14.7727389,59.179 L28.8847389,35.84 L31.7597389,41.229 L25.1337389,52.678 C24.9547389,52.988 24.9547389,53.369 25.1327389,53.679 C25.3117389,53.988 25.6417389,54.179 25.9997389,54.179 L38.6667389,54.179 L41.3327389,59.179 L14.7727389,59.179 Z M40.1487389,52.708 C39.9747389,52.383 39.6347389,52.179 39.2657389,52.179 L27.7337389,52.179 L33.7687389,41.75 C33.9427389,41.451 33.9487389,41.084 33.7867389,40.779 L29.8227389,33.346 C29.6527389,33.029 29.3267389,32.827 28.9667389,32.817 C28.5827389,32.8 28.2697389,32.992 28.0847389,33.299 L12.1437389,59.661 C11.9577389,59.971 11.9517389,60.356 12.1287389,60.67 C12.3057389,60.985 12.6377389,61.179 12.9997389,61.179 L42.9997389,61.179 C43.3507389,61.179 43.6757389,60.995 43.8567389,60.694 C44.0377389,60.392 44.0477389,60.018 43.8817389,59.708 L40.1487389,52.708 Z" id="AWS-Amplify_Icon_64_Squid" fill="#FFFFFF"></path>
    </g>
</g>
<text x="97.42857142857143" y="150" text-anchor="middle" fill="#f4f1f8" font-family="sans-serif" font-size="14" font-weight="600">ESP32-S3</text><text x="97.42857142857143" y="172" text-anchor="middle" fill="#9b92b0" font-family="sans-serif" font-size="12">MQTT + mTLS</text>
<text x="274.2857142857143" y="150" text-anchor="middle" fill="#f4f1f8" font-family="sans-serif" font-size="14" font-weight="600">IoT Core</text>
<text x="457.14285714285717" y="150" text-anchor="middle" fill="#f4f1f8" font-family="sans-serif" font-size="14" font-weight="600">IoT Rules</text>
<text x="640" y="150" text-anchor="middle" fill="#f4f1f8" font-family="sans-serif" font-size="14" font-weight="600">Lambda</text><text x="640" y="172" text-anchor="middle" fill="#9b92b0" font-family="sans-serif" font-size="12">ingest</text>
<text x="822.8571428571429" y="150" text-anchor="middle" fill="#f4f1f8" font-family="sans-serif" font-size="14" font-weight="600">DynamoDB</text><text x="822.8571428571429" y="172" text-anchor="middle" fill="#9b92b0" font-family="sans-serif" font-size="12">telemetry + events</text>
<text x="1005.7142857142858" y="150" text-anchor="middle" fill="#f4f1f8" font-family="sans-serif" font-size="14" font-weight="600">API Gateway</text><text x="1005.7142857142858" y="172" text-anchor="middle" fill="#9b92b0" font-family="sans-serif" font-size="12">query API</text>
<text x="1188.5714285714284" y="150" text-anchor="middle" fill="#f4f1f8" font-family="sans-serif" font-size="14" font-weight="600">Amplify</text><text x="1188.5714285714284" y="172" text-anchor="middle" fill="#9b92b0" font-family="sans-serif" font-size="12">dashboard</text>
</svg>
